0
SECTION
2
ENTITIES
0
LINE
8
0
10
0.000
20
0.000
11
103.000
21
0.000
0
LINE
8
0
10
103.000
20
0.000
11
103.000
21
53.000
0
LINE
8
0
10
103.000
20
53.000
11
0.000
21
53.000
0
LINE
8
0
10
0.000
20
53.000
11
0.000
21
0.000
0
CIRCLE
8
0
10
3.990
20
4.000
40
1.800
0
CIRCLE
8
0
10
99.010
20
4.000
40
1.800
0
CIRCLE
8
0
10
3.990
20
49.000
40
1.800
0
CIRCLE
8
0
10
99.010
20
49.000
40
1.800
0
TEXT
8
NOTES
10
2.000
20
57.000
40
2.500
1
SENSOR PANEL - 4x Phoenix PT 1,5/5-3,5-H (RTD1..RTD3, spare) - Hammond 1455N 103x53x1.5 plate
0
TEXT
8
NOTES
10
2.000
20
53.500
40
1.800
1
VIEWED FROM OUTSIDE. Origin lower-left. Units mm. Corner screw holes = existing (do not machine).
0
TEXT
8
NOTES
10
2.000
20
-3.500
40
1.800
1
DATUM NOTE: board-top height H0=9.54 assumes the LOWEST card slot (floor 1.65 + slot 6.29 + PCB 1.6).
0
TEXT
8
NOTES
10
2.000
20
-6.500
40
1.800
1
VERIFY H0 and slot pitch on the physical 1455N before machining (Hammond drawing values, no tolerances published).
0
LINE
8
0
10
11.200
20
9.240
11
29.800
21
9.240
0
LINE
8
0
10
29.800
20
9.240
11
29.800
21
19.440
0
LINE
8
0
10
29.800
20
19.440
11
11.200
21
19.440
0
LINE
8
0
10
11.200
20
19.440
11
11.200
21
9.240
0
TEXT
8
NOTES
10
12.200
20
20.440
40
1.600
1
RTD1 18.6x10.2
0
LINE
8
0
10
33.200
20
9.240
11
51.800
21
9.240
0
LINE
8
0
10
51.800
20
9.240
11
51.800
21
19.440
0
LINE
8
0
10
51.800
20
19.440
11
33.200
21
19.440
0
LINE
8
0
10
33.200
20
19.440
11
33.200
21
9.240
0
TEXT
8
NOTES
10
34.200
20
20.440
40
1.600
1
RTD2 18.6x10.2
0
LINE
8
0
10
55.200
20
9.240
11
73.800
21
9.240
0
LINE
8
0
10
73.800
20
9.240
11
73.800
21
19.440
0
LINE
8
0
10
73.800
20
19.440
11
55.200
21
19.440
0
LINE
8
0
10
55.200
20
19.440
11
55.200
21
9.240
0
TEXT
8
NOTES
10
56.200
20
20.440
40
1.600
1
RTD3 18.6x10.2
0
LINE
8
0
10
77.200
20
9.240
11
95.800
21
9.240
0
LINE
8
0
10
95.800
20
9.240
11
95.800
21
19.440
0
LINE
8
0
10
95.800
20
19.440
11
77.200
21
19.440
0
LINE
8
0
10
77.200
20
19.440
11
77.200
21
9.240
0
TEXT
8
NOTES
10
78.200
20
20.440
40
1.600
1
SPARE 18.6x10.2
0
TEXT
8
NOTES
10
2.000
20
-9.500
40
1.800
1
Block body height above PCB assumed 9.2 mm (PT 1,5-H): VERIFY against Phoenix 1984646 drawing; wires push in through cutout.
0
ENDSEC
0
EOF
